<svg width="24" height="20" viewBox="0 0 24 20" fill="none" xmlns="http://www.w3.org/2000/svg">
<g clip-path="url(#clip0_301_1028)">
<path d="M5.4 6.3999C7.0575 6.3999 8.4 5.0574 8.4 3.3999C8.4 1.7424 7.0575 0.399902 5.4 0.399902C3.7425 0.399902 2.4 1.7424 2.4 3.3999C2.4 5.0574 3.7425 6.3999 5.4 6.3999ZM19.2 6.3999C20.8575 6.3999 22.2 5.0574 22.2 3.3999C22.2 1.7424 20.8575 0.399902 19.2 0.399902C17.5425 0.399902 16.2 1.7424 16.2 3.3999C16.2 5.0574 17.5425 6.3999 19.2 6.3999ZM0 11.6012C0 12.0399 0.36 12.3999 0.79875 12.3999H8.8275C7.83 11.5187 7.20375 10.2324 7.20375 8.7999C7.20375 8.5149 7.23 8.2374 7.275 7.96365C6.765 7.7274 6.19875 7.5999 5.6025 7.5999H4.00125C1.7925 7.5999 0 9.3924 0 11.6012ZM12 12.3999C12.9 12.3999 13.7212 12.0699 14.3512 11.5262C14.445 11.3874 14.5462 11.2524 14.6512 11.1249C14.7525 11.0012 14.865 10.8962 14.9887 10.8137C15.375 10.2362 15.6 9.54615 15.6 8.7999C15.6 6.8124 13.9875 5.1999 12 5.1999C10.0125 5.1999 8.4 6.8124 8.4 8.7999C8.4 10.7874 10.0125 12.3999 12 12.3999ZM14.4525 14.6574C14.0662 14.4362 13.7737 14.0499 13.6725 13.5999H9.79875C7.03875 13.5999 4.8 15.8387 4.8 18.5987C4.8 19.1499 5.24625 19.5999 5.80125 19.5999H17.07C16.9912 19.4049 16.95 19.1912 16.95 18.9849V18.8724C16.9012 18.8462 16.8487 18.8162 16.8 18.7862L16.7025 18.8424C16.0725 19.2062 15.1837 19.1424 14.6512 18.4787C14.4825 18.2687 14.3287 18.0474 14.1862 17.8187L14.1825 17.8112L14.1787 17.8037L14.0887 17.6499L14.085 17.6424L14.0812 17.6349C13.9537 17.4024 13.8412 17.1624 13.7437 16.9112C13.4362 16.1162 13.8262 15.3137 14.4562 14.9499L14.5575 14.8937V14.7212L14.4562 14.6649L14.4525 14.6574ZM19.9987 7.5999H18.4012C17.805 7.5999 17.2387 7.73115 16.7287 7.96365C16.7775 8.23365 16.8 8.5149 16.8 8.7999C16.8 9.4524 16.6687 10.0712 16.4362 10.6374C16.53 10.6712 16.62 10.7124 16.7025 10.7612L16.8 10.8174C16.8487 10.7874 16.8975 10.7574 16.95 10.7312V10.6187C16.95 9.89115 17.4487 9.1524 18.2925 9.02115C18.5887 8.97615 18.8925 8.9499 19.2 8.9499C19.5075 8.9499 19.8112 8.9724 20.1075 9.02115C20.9513 9.1524 21.45 9.89115 21.45 10.6187V10.7312C21.4987 10.7574 21.5512 10.7874 21.6 10.8174L21.6975 10.7612C22.3275 10.3974 23.2162 10.4612 23.7487 11.1249C23.835 11.2299 23.9175 11.3424 23.9963 11.4512C23.9175 9.3099 22.1587 7.5999 19.9987 7.5999ZM23.4225 13.7462C23.6587 13.6112 23.7787 13.3299 23.6775 13.0712C23.5987 12.8649 23.505 12.6662 23.4 12.4749L23.3137 12.3249C23.1975 12.1337 23.07 11.9537 22.9312 11.7812C22.7587 11.5674 22.455 11.5299 22.2187 11.6687L21.54 12.0624C21.2062 11.7774 20.8237 11.5524 20.4 11.4024V10.6149C20.4 10.3412 20.2162 10.0974 19.9462 10.0562C19.7025 10.0187 19.455 9.9999 19.2 9.9999C18.945 9.9999 18.6975 10.0187 18.4537 10.0562C18.1837 10.0974 18 10.3412 18 10.6149V11.4024C17.58 11.5524 17.1937 11.7774 16.86 12.0624L16.1775 11.6687C15.9412 11.5337 15.6375 11.5712 15.465 11.7812C15.3262 11.9537 15.1987 12.1374 15.0825 12.3287L14.9962 12.4749C14.8912 12.6662 14.7975 12.8649 14.7187 13.0712C14.6212 13.3262 14.7375 13.6074 14.9737 13.7424L15.6562 14.1362C15.6187 14.3499 15.5962 14.5712 15.5962 14.7962C15.5962 15.0212 15.6187 15.2424 15.6562 15.4524L14.9737 15.8462C14.7375 15.9812 14.6175 16.2624 14.7187 16.5174C14.7975 16.7237 14.8912 16.9187 14.9962 17.1099L15.0862 17.2637C15.1987 17.4549 15.3262 17.6349 15.465 17.8074C15.6375 18.0212 15.9412 18.0587 16.1775 17.9199L16.86 17.5374C17.1937 17.8224 17.58 18.0474 18 18.1974V18.9849C18 19.2587 18.1837 19.5024 18.4537 19.5437C18.6975 19.5812 18.945 19.5999 19.2 19.5999C19.455 19.5999 19.7025 19.5812 19.9462 19.5437C20.2162 19.5024 20.4 19.2587 20.4 18.9849V18.1974C20.82 18.0474 21.2062 17.8224 21.54 17.5374L22.2225 17.9312C22.4587 18.0662 22.7625 18.0287 22.935 17.8187C23.0737 17.6462 23.2012 17.4662 23.3137 17.2749L23.4037 17.1174C23.5087 16.9262 23.6025 16.7312 23.6812 16.5249C23.7787 16.2699 23.6625 15.9887 23.4262 15.8537L22.7437 15.4599C22.7812 15.2462 22.8037 15.0249 22.8037 14.8037C22.8037 14.5824 22.7812 14.3574 22.7437 14.1437L23.4262 13.7499L23.4225 13.7462ZM20.7 14.7999C20.7 15.6287 20.0287 16.2999 19.2 16.2999C18.3712 16.2999 17.7 15.6287 17.7 14.7999C17.7 13.9712 18.3712 13.2999 19.2 13.2999C20.0287 13.2999 20.7 13.9712 20.7 14.7999Z" fill="#FAFAFA" fill-opacity="0.7"/>
</g>
<defs>
<clipPath id="clip0_301_1028">
<rect width="24" height="19.2" fill="white" transform="translate(0 0.399902)"/>
</clipPath>
</defs>
</svg>
