<svg width="25" height="25" viewBox="0 0 25 25" fill="none" xmlns="http://www.w3.org/2000/svg">
<path d="M15.5 14.5C12.83 14.5 7.5 15.83 7.5 18.5V20.5H23.5V18.5C23.5 15.83 18.17 14.5 15.5 14.5ZM6.5 10.5V7.5H4.5V10.5H1.5V12.5H4.5V15.5H6.5V12.5H9.5V10.5M15.5 12.5C16.5609 12.5 17.5783 12.0786 18.3284 11.3284C19.0786 10.5783 19.5 9.56087 19.5 8.5C19.5 7.43913 19.0786 6.42172 18.3284 5.67157C17.5783 4.92143 16.5609 4.5 15.5 4.5C14.4391 4.5 13.4217 4.92143 12.6716 5.67157C11.9214 6.42172 11.5 7.43913 11.5 8.5C11.5 9.56087 11.9214 10.5783 12.6716 11.3284C13.4217 12.0786 14.4391 12.5 15.5 12.5Z" fill="#FAFAFA"/>
</svg>
