<svg width="25" height="25" viewBox="0 0 25 25" fill="none" xmlns="http://www.w3.org/2000/svg">
<g clip-path="url(#clip0_301_601)">
<path d="M19.5 17.5V19.5H7.5V17.5C7.5 17.5 7.5 13.5 13.5 13.5C19.5 13.5 19.5 17.5 19.5 17.5ZM16.5 8.5C16.5 7.90666 16.3241 7.32664 15.9944 6.83329C15.6648 6.33994 15.1962 5.95543 14.6481 5.72836C14.0999 5.5013 13.4967 5.44189 12.9147 5.55765C12.3328 5.6734 11.7982 5.95912 11.3787 6.37868C10.9591 6.79824 10.6734 7.33279 10.5576 7.91473C10.4419 8.49667 10.5013 9.09987 10.7284 9.64805C10.9554 10.1962 11.3399 10.6648 11.8333 10.9944C12.3266 11.3241 12.9067 11.5 13.5 11.5C14.2956 11.5 15.0587 11.1839 15.6213 10.6213C16.1839 10.0587 16.5 9.29565 16.5 8.5ZM19.7 13.56C20.2466 14.0643 20.6873 14.6724 20.9964 15.3489C21.3054 16.0254 21.4766 16.7566 21.5 17.5V19.5H24.5V17.5C24.5 17.5 24.5 14.05 19.7 13.56ZM18.5 5.5C18.1979 5.50018 17.8976 5.54741 17.61 5.64C18.1951 6.47897 18.5087 7.47718 18.5087 8.5C18.5087 9.52282 18.1951 10.521 17.61 11.36C17.8976 11.4526 18.1979 11.4998 18.5 11.5C19.2956 11.5 20.0587 11.1839 20.6213 10.6213C21.1839 10.0587 21.5 9.29565 21.5 8.5C21.5 7.70435 21.1839 6.94129 20.6213 6.37868C20.0587 5.81607 19.2956 5.5 18.5 5.5ZM8.5 10.5H5.5V7.5H3.5V10.5H0.5V12.5H3.5V15.5H5.5V12.5H8.5V10.5Z" fill="#FAFAFA"/>
</g>
<defs>
<clipPath id="clip0_301_601">
<rect width="24" height="24" fill="white" transform="translate(0.5 0.5)"/>
</clipPath>
</defs>
</svg>
