<svg width="24" height="25" viewBox="0 0 24 25" fill="none" xmlns="http://www.w3.org/2000/svg">
<path d="M21.525 5.96561L18.525 2.96561C18.3844 2.82535 18.1939 2.74658 17.9953 2.74658C17.7967 2.74658 17.6062 2.82535 17.4656 2.96561L8.46563 11.9656C8.32633 12.1085 8.24888 12.3004 8.25 12.5V15.5C8.25 15.6989 8.32902 15.8897 8.46967 16.0303C8.61032 16.171 8.80109 16.25 9 16.25H12C12.0974 16.2503 12.1939 16.2315 12.284 16.1945C12.3741 16.1575 12.456 16.1031 12.525 16.0344L21.525 7.03436C21.5959 6.96457 21.6521 6.88139 21.6906 6.78965C21.729 6.69791 21.7487 6.59944 21.7487 6.49999C21.7487 6.40053 21.729 6.30206 21.6906 6.21032C21.6521 6.11858 21.5959 6.0354 21.525 5.96561ZM18.75 7.69061L16.8094 5.74999L18 4.55936L19.9406 6.49999L18.75 7.69061ZM21 11.75V20C21 20.3978 20.842 20.7793 20.5607 21.0606C20.2794 21.3419 19.8978 21.5 19.5 21.5H4.5C4.10218 21.5 3.72064 21.3419 3.43934 21.0606C3.15804 20.7793 3 20.3978 3 20V4.99999C3 4.60216 3.15804 4.22063 3.43934 3.93932C3.72064 3.65802 4.10218 3.49999 4.5 3.49999H12.75C12.9489 3.49999 13.1397 3.579 13.2803 3.71966C13.421 3.86031 13.5 4.05107 13.5 4.24999C13.5 4.4489 13.421 4.63966 13.2803 4.78032C13.1397 4.92097 12.9489 4.99999 12.75 4.99999H4.5V20H19.5V11.75C19.5 11.5511 19.579 11.3603 19.7197 11.2197C19.8603 11.079 20.0511 11 20.25 11C20.4489 11 20.6397 11.079 20.7803 11.2197C20.921 11.3603 21 11.5511 21 11.75Z" fill="#FAFAFA" fill-opacity="0.7"/>
</svg>
